# xmcd
#
# Track frame offsets: 
#        150
#        19263
#        36727
#        61228
#        83635
#        104458
#
# Disc length: 1680 seconds
#
# Revision: 0
# Processed by: cddbd v1.5.2PL0 Copyright (c) Steve Scherf et al.
# Submitted via: ExactAudioCopy v1.3
#
DISCID=4a068e06
DTITLE=Crimson Town Players - Live Session 2019
DYEAR=2019
DGENRE=Blues
TTITLE0=From Seven To Eight
TTITLE1=Funny Creatures pt. 2
TTITLE2=Fool Keep Cool
TTITLE3=I Wish
TTITLE4=Reach for The Movie Dream
TTITLE5=Sad Stories
EXTD=
EXTT0=
EXTT1=
EXTT2=
EXTT3=
EXTT4=
EXTT5=
PLAYORDER=
